<svg width="24" height="25" viewBox="0 0 24 25" fill="none" xmlns="http://www.w3.org/2000/svg">
<g clip-path="url(#clip0_305_836)">
<path d="M12 2.38354L23.1429 7.21269L12 12.0401L0.857143 7.21269L12 2.38354Z" stroke="white" stroke-width="2" stroke-linecap="round" stroke-linejoin="round"/>
<path d="M5.91429 9.41564L5.92457 14.6682C5.92457 14.6682 7.764 17.1025 12 17.1025C16.2343 17.1025 18.0857 14.6682 18.0857 14.6682L18.084 9.41564M2.90571 18.2134V8.11621M2.90571 18.2134C3.44948 18.2134 3.9727 18.4294 4.3572 18.8139C4.7417 19.1984 4.95771 19.7199 4.95771 20.2636C4.95771 20.8074 4.7417 21.3289 4.3572 21.7134C3.9727 22.0979 3.4512 22.3139 2.90743 22.3139C2.36366 22.3139 1.84216 22.0979 1.45766 21.7134C1.07316 21.3289 0.857143 20.8074 0.857143 20.2636C0.857143 19.7199 1.07316 19.1984 1.45766 18.8139C1.84216 18.4294 2.36195 18.2134 2.90571 18.2134Z" stroke="white" stroke-width="2" stroke-linecap="round" stroke-linejoin="round"/>
</g>
<defs>
<clipPath id="clip0_305_836">
<rect width="24" height="24" fill="white" transform="translate(0 0.0400391)"/>
</clipPath>
</defs>
</svg>
