<svg width="30" height="31" viewBox="0 0 30 31" fill="none" xmlns="http://www.w3.org/2000/svg">
<path d="M22.1375 15.0306L15.8875 8.78058C15.7686 8.66678 15.6284 8.57758 15.475 8.51808C15.1707 8.39306 14.8293 8.39306 14.525 8.51808C14.3715 8.57758 14.2314 8.66678 14.1125 8.78058L7.86249 15.0306C7.74594 15.1471 7.65349 15.2855 7.59041 15.4378C7.52734 15.59 7.49487 15.7533 7.49487 15.9181C7.49487 16.251 7.62711 16.5702 7.86249 16.8056C8.09787 17.041 8.41711 17.1732 8.74999 17.1732C9.08286 17.1732 9.40211 17.041 9.63749 16.8056L13.75 12.6806V22.1681C13.75 22.4996 13.8817 22.8175 14.1161 23.052C14.3505 23.2864 14.6685 23.4181 15 23.4181C15.3315 23.4181 15.6495 23.2864 15.8839 23.052C16.1183 22.8175 16.25 22.4996 16.25 22.1681V12.6806L20.3625 16.8056C20.4787 16.9227 20.6169 17.0157 20.7693 17.0792C20.9216 17.1427 21.085 17.1753 21.25 17.1753C21.415 17.1753 21.5784 17.1427 21.7307 17.0792C21.883 17.0157 22.0213 16.9227 22.1375 16.8056C22.2546 16.6894 22.3476 16.5511 22.4111 16.3988C22.4746 16.2465 22.5072 16.0831 22.5072 15.9181C22.5072 15.7531 22.4746 15.5897 22.4111 15.4374C22.3476 15.285 22.2546 15.1468 22.1375 15.0306Z" fill="white"/>
</svg>
