<svg width="24" height="25" viewBox="0 0 24 25" fill="none" xmlns="http://www.w3.org/2000/svg">
<path d="M11.2275 20.924C11.1869 21.0863 11.0933 21.2303 10.9615 21.3333C10.8297 21.4362 10.6672 21.4921 10.5 21.4922C10.4368 21.4925 10.3738 21.4849 10.3125 21.4697L7.3125 20.7197C7.22898 20.6987 7.1497 20.6635 7.07812 20.6156L4.82812 19.1156C4.66265 19.0052 4.54782 18.8336 4.50887 18.6385C4.46993 18.4435 4.51007 18.2409 4.62047 18.0754C4.73086 17.91 4.90247 17.7951 5.09754 17.7562C5.29261 17.7173 5.49515 17.7574 5.66062 17.8678L7.80187 19.2956L10.6762 20.0147C10.7723 20.038 10.8628 20.08 10.9425 20.1383C11.0223 20.1967 11.0897 20.2703 11.1409 20.3548C11.1921 20.4393 11.2262 20.5331 11.241 20.6308C11.2559 20.7285 11.2513 20.8281 11.2275 20.924ZM23.6672 11.8809C23.6056 12.0678 23.5077 12.2407 23.379 12.3896C23.2502 12.5384 23.0933 12.6603 22.9172 12.7481L20.6972 13.8581L15.5334 19.0228C15.4418 19.1143 15.328 19.1806 15.2031 19.2151C15.0783 19.2496 14.9466 19.2512 14.8209 19.2197L8.82094 17.7197C8.72969 17.6968 8.64353 17.657 8.56687 17.6025L3.36187 13.8862L1.08562 12.7481C0.729877 12.5703 0.459319 12.2584 0.333443 11.8811C0.207567 11.5039 0.236678 11.092 0.414375 10.7362L2.74406 6.07779C2.9219 5.72205 3.23374 5.45149 3.61102 5.32561C3.9883 5.19974 4.40012 5.22885 4.75594 5.40654L6.82406 6.43779L11.7928 5.01842C11.9276 4.97986 12.0705 4.97986 12.2053 5.01842L17.1741 6.43779L19.2422 5.40654C19.598 5.22885 20.0098 5.19974 20.3871 5.32561C20.7644 5.45149 21.0762 5.72205 21.2541 6.07779L23.5837 10.7362C23.6726 10.9121 23.7257 11.1037 23.7401 11.3002C23.7544 11.4967 23.7296 11.6941 23.6672 11.8809ZM19.3378 13.094L16.7869 7.99217H13.8038L9.75 11.9297C10.9369 12.6881 12.7978 12.8972 14.4675 11.2144C14.5979 11.0829 14.7723 11.0044 14.9572 10.9938C15.142 10.9832 15.3242 11.0414 15.4687 11.1572L18.6947 13.7419L19.3378 13.094ZM1.75594 11.4065L3.41437 12.2362L5.74406 7.57779L4.08562 6.74811L1.75594 11.4065ZM17.625 14.804L15.0272 12.7237C13.1953 14.2237 10.8694 14.4215 8.94187 13.1925C8.75227 13.0719 8.59219 12.9102 8.47345 12.7194C8.35472 12.5286 8.28036 12.3136 8.25588 12.0902C8.23141 11.8669 8.25743 11.6409 8.33202 11.4289C8.40662 11.2169 8.52789 11.0244 8.68687 10.8656C8.68913 10.8629 8.69164 10.8604 8.69437 10.8581L12.9 6.77904L12 6.52217L7.27312 7.87311L4.70719 13.004L9.31969 16.2994L14.7703 17.6615L17.625 14.804ZM22.2413 11.4065L19.9144 6.74811L18.2559 7.57779L20.5856 12.2362L22.2413 11.4065Z" fill="white"/>
</svg>
