<svg width="32" height="33" viewBox="0 0 32 33" fill="none" xmlns="http://www.w3.org/2000/svg">
<circle cx="16" cy="16.918" r="16" fill="#5FCD2C"/>
<path d="M21.9625 23.668C20.4 23.668 18.8562 23.3272 17.3312 22.6457C15.8062 21.9642 14.4188 20.9987 13.1688 19.7492C11.9188 18.4992 10.9532 17.1117 10.2722 15.5867C9.59125 14.0617 9.2505 12.518 9.25 10.9555C9.25 10.7305 9.325 10.543 9.475 10.393C9.625 10.243 9.8125 10.168 10.0375 10.168H13.075C13.25 10.168 13.4063 10.2275 13.5438 10.3465C13.6813 10.4655 13.7625 10.606 13.7875 10.768L14.275 13.393C14.3 13.593 14.2938 13.7617 14.2563 13.8992C14.2188 14.0367 14.15 14.1555 14.05 14.2555L12.2312 16.093C12.4813 16.5555 12.778 17.0022 13.1215 17.4332C13.465 17.8642 13.8433 18.28 14.2563 18.6805C14.6438 19.068 15.05 19.4275 15.475 19.759C15.9 20.0905 16.35 20.3935 16.825 20.668L18.5875 18.9055C18.7 18.793 18.847 18.7085 19.0285 18.652C19.21 18.5955 19.388 18.58 19.5625 18.6055L22.15 19.1305C22.325 19.1805 22.4688 19.2712 22.5812 19.4027C22.6937 19.5342 22.75 19.681 22.75 19.843V22.8805C22.75 23.1055 22.675 23.293 22.525 23.443C22.375 23.593 22.1875 23.668 21.9625 23.668Z" fill="white"/>
</svg>
