<svg width="278" height="75" viewBox="0 0 278 75" fill="none" xmlns="http://www.w3.org/2000/svg">
<g clip-path="url(#clip0_241_1879)">
<mask id="mask0_241_1879" style="mask-type:luminance" maskUnits="userSpaceOnUse" x="0" y="0" width="278" height="74">
<path d="M277.5 0.758759H0.5V73.6025H277.5V0.758759Z" fill="white"/>
</mask>
<g mask="url(#mask0_241_1879)">
<path d="M33.0752 0.758759C25.0976 2.43205 0.5 11.1331 0.5 11.1331C2.3836 63.7859 28.0892 72.487 32.4104 73.4909C32.632 73.4909 32.7428 73.6025 32.9644 73.6025C33.186 73.6025 33.4076 73.6025 33.5184 73.4909C37.8396 72.3754 63.5452 63.6744 65.4288 11.1331C65.6504 11.1331 41.0528 2.43205 33.0752 0.758759Z" fill="#00A6D0"/>
<path d="M65.6504 11.1331C65.6504 11.1331 41.0528 2.43205 33.0752 0.758759C25.0976 2.43205 0.5 11.1331 0.5 11.1331C0.5 12.5833 0.5 12.4718 0.6108 13.8104C2.9376 13.0296 25.5408 6.67103 33.0752 5.1093C40.6096 6.67103 63.2128 13.0296 65.5396 13.8104C65.5396 12.3602 65.5396 12.4718 65.6504 11.1331Z" fill="#00BFEF"/>
<path d="M33.6292 70.9252C33.4076 70.9252 33.186 71.0368 32.9644 71.0368C32.7428 71.0368 32.5212 71.0368 32.4104 70.9252C28.2 69.8097 3.27 61.4433 0.6108 11.0216C0.5 11.0216 0.5 11.1331 0.5 11.1331C2.3836 63.7858 28.0892 72.487 32.4104 73.4909C32.632 73.4909 32.7428 73.6025 32.9644 73.6025C33.186 73.6025 33.4076 73.6025 33.5184 73.4909C37.8396 72.3754 63.5452 63.6744 65.4288 11.1331C65.4288 11.1331 65.4288 11.1331 65.318 11.1331C62.8804 61.4433 37.9504 69.8097 33.6292 70.9252Z" fill="#00BFEF"/>
<g opacity="0.25">
<path d="M30.0836 40.8061C28.754 41.0292 26.538 41.4754 24.6544 41.6986C22.106 42.0332 21.2196 41.4754 20.6656 39.0213C20.6656 38.9097 20.6656 38.7981 20.5548 38.6866C21.7736 38.5751 22.8816 38.3519 23.8788 38.2404C27.9784 37.7941 30.5268 36.9017 31.9672 35.2285C31.1916 34.336 30.8592 33.3321 30.8592 32.105C30.8592 30.2087 31.4132 28.7584 32.5212 27.7544C31.3024 26.3042 28.754 25.0772 23.8788 25.4119C15.5688 26.3042 12.2448 30.8779 13.796 38.0173C13.9068 38.7981 14.1284 39.579 14.35 40.2484C16.566 46.7184 20.0008 46.7184 24.6544 46.1606C25.984 45.9375 28.2 45.4913 29.6404 45.1567C29.862 43.818 29.9728 42.2563 30.0836 40.8061ZM23.768 29.9855C26.2056 29.7624 26.538 30.6549 26.6488 31.7703C26.7596 33.3321 25.2084 33.8898 22.7708 34.2246C22.106 34.336 21.2196 34.4476 20.3332 34.4476C20.5548 31.4357 21.6628 30.2087 23.768 29.9855Z" fill="black"/>
<path d="M44.4876 30.8779C47.3684 31.4357 49.1412 32.3281 50.5816 33.109C51.2464 31.7704 51.8004 30.3201 52.4652 28.9815C51.468 28.4238 48.3656 27.0852 45.8172 26.639C40.388 25.5234 36.6208 26.0812 34.6264 27.9776C33.5184 28.9815 32.8536 30.5433 32.9644 32.3281C32.9644 33.5552 33.2968 34.5592 34.0724 35.4516C35.0696 36.5671 36.6208 37.3479 39.0584 38.0173C41.1636 38.6866 41.7176 39.2444 41.496 40.1368C41.1636 41.8101 39.6124 41.9216 37.3964 41.6986C35.5128 41.4754 33.6292 41.0292 32.4104 40.8062C32.2996 42.2563 32.1888 43.7065 32.078 45.2683C31.9672 45.2683 31.9672 45.2683 31.8564 45.2683C32.9644 45.4913 35.2912 45.9375 37.2856 46.1606C42.2716 46.7184 46.1496 46.4953 48.0332 40.9176C48.8088 38.4635 48.0332 35.8978 43.2688 34.0014C41.2744 33.2206 40.1664 32.8859 40.2772 31.9935C40.4988 30.7664 41.7176 30.3201 44.4876 30.8779Z" fill="black"/>
</g>
<path d="M30.0835 37.3479C28.7539 37.5711 26.5379 38.0173 24.6543 38.2403C22.1059 38.5751 21.2195 38.0173 20.6655 35.5632C20.6655 35.4516 20.6655 35.34 20.5547 35.2285C21.7735 35.117 22.8815 34.8938 23.8787 34.7822C27.9783 34.336 30.5267 33.4436 31.9671 31.7703C31.1915 30.8779 30.8591 29.8739 30.8591 28.6469C30.8591 26.7505 31.4131 25.3003 32.5211 24.2963C31.3023 22.8461 28.7539 21.6191 23.8787 21.9537C15.7903 23.0693 12.4663 27.5314 13.9067 34.7822C14.0175 35.5632 14.2391 36.344 14.4607 37.0133C16.6767 43.4834 20.1115 43.4834 24.7651 42.9256C26.0947 42.7025 28.3107 42.2563 29.7511 41.9216C29.8619 40.3599 29.9727 38.9097 30.0835 37.3479ZM23.7679 26.5274C26.2055 26.3043 26.5379 27.1968 26.6487 28.3122C26.7595 29.8739 25.2083 30.4317 22.7707 30.7663C22.1059 30.8779 21.2195 30.9895 20.3331 30.9895C20.5547 28.0892 21.6627 26.7505 23.7679 26.5274Z" fill="white"/>
<path d="M44.4876 27.4198C47.3684 27.9776 49.1412 28.87 50.5816 29.6509C51.2464 28.3122 51.8004 26.862 52.4652 25.5234C51.468 24.9657 48.3656 23.6271 45.8172 23.1809C40.388 22.0653 36.6208 22.6231 34.6264 24.5195C33.5184 25.5234 32.8536 27.0852 32.9644 28.87C32.9644 30.0971 33.2968 31.1011 34.0724 31.9935C35.0696 33.109 36.6208 33.8898 39.0584 34.5592C41.1636 35.2285 41.7176 35.7863 41.496 36.6787C41.1636 38.3519 39.6124 38.4635 37.3964 38.2405C35.5128 38.0173 33.6292 37.5711 32.4104 37.3479C32.2996 38.7981 32.1888 40.2484 32.078 41.81C31.9672 41.81 31.9672 41.81 31.8564 41.81C32.9644 42.0332 35.2912 42.4794 37.2856 42.7025C42.2716 43.2603 46.1496 43.0372 48.0332 37.4595C48.8088 35.0054 48.0332 32.4397 43.2688 30.5433C41.2744 29.7625 40.1664 29.4277 40.2772 28.5354C40.4988 27.3082 41.7176 26.862 44.4876 27.4198Z" fill="white"/>
<path opacity="0.08" d="M33.0752 0.8703C25.0976 2.43204 0.61084 11.1331 0.61084 11.1331C2.49444 63.5628 28.2 72.2639 32.5212 73.3794C32.7428 73.3794 32.8536 73.4909 33.0752 73.4909V0.8703Z" fill="white"/>
<path d="M86.37 38.0173C85.3728 38.0173 84.154 38.0173 82.9352 37.9057V38.3519C82.9352 41.4754 83.8216 42.3678 86.7024 42.3678C88.9184 42.3678 91.5776 41.9216 93.018 41.587L92.5748 47.1646C90.9128 47.6108 88.032 48.057 86.2592 48.057C80.3868 48.057 76.5088 46.6068 76.5088 38.1289C76.5088 37.2365 76.5088 36.344 76.6196 35.2285C77.506 26.0812 80.9408 22.3999 87.8104 22.3999C94.7908 22.3999 96.1204 26.862 96.1204 29.5393C96.1204 34.8938 93.572 38.0173 86.37 38.0173ZM83.4892 32.6628C84.3756 32.7743 85.1512 32.7743 85.816 32.7743C88.1428 32.7743 89.694 32.105 89.694 30.2087C89.694 28.87 89.3616 27.643 87.2564 27.643C85.262 27.7544 84.154 28.9815 83.4892 32.6628Z" fill="#414042"/>
<path d="M111.522 22.2884C112.187 22.2884 112.851 22.2884 113.516 22.3999L114.403 12.8064H120.94L117.948 47.4992H112.63L112.297 44.7105C110.525 46.7184 108.419 47.9454 105.539 47.9454C100.553 47.9454 98.5581 45.6029 98.5581 39.3559C98.5581 38.2405 98.6689 36.7902 98.7797 35.4516C99.6661 25.635 103.212 22.2884 111.522 22.2884ZM112.408 36.1209L113.073 28.0892C112.187 27.9776 111.3 27.9776 110.635 27.9776C107.644 27.9776 105.317 29.7624 105.317 38.5751C105.317 41.587 106.093 42.2563 107.865 42.2563C110.746 42.2563 112.187 38.4635 112.408 36.1209Z" fill="#414042"/>
<path d="M130.468 22.7346L129.25 37.2364C129.25 38.1289 129.139 39.0213 129.139 39.4675C129.139 41.6986 129.914 42.2562 131.466 42.2562C134.236 42.2562 135.454 38.4635 135.676 36.1209L136.784 22.8461H143.321L141.216 47.6108H135.898L135.676 45.1567C134.125 46.9415 132.02 48.057 129.139 48.057C124.264 48.057 122.602 45.4913 122.602 40.4714C122.602 39.6906 122.602 38.9097 122.712 38.0173L124.042 22.8461H130.468V22.7346Z" fill="#414042"/>
<path d="M176.007 38.0173C175.01 38.0173 173.791 38.0173 172.572 37.9057V38.3519C172.572 41.4754 173.459 42.3678 176.34 42.3678C178.556 42.3678 181.215 41.9216 182.655 41.587L182.212 47.1646C180.55 47.6108 177.669 48.057 175.896 48.057C170.024 48.057 166.146 46.6068 166.146 38.1289C166.146 37.2365 166.146 36.344 166.257 35.2285C167.143 26.0812 170.689 22.3999 177.448 22.3999C184.428 22.3999 185.758 26.862 185.758 29.5393C185.758 34.8938 183.098 38.0173 176.007 38.0173ZM173.016 32.6628C173.902 32.7743 174.678 32.7743 175.342 32.7743C177.669 32.7743 179.22 32.105 179.22 30.2087C179.22 28.87 178.888 27.643 176.783 27.643C174.899 27.7544 173.791 28.9815 173.016 32.6628Z" fill="#414042"/>
<path d="M203.596 47.1646C201.934 47.6108 199.608 47.9454 197.946 47.9454C192.516 47.9454 188.971 46.3837 188.971 37.9057C188.971 26.5274 192.516 22.2884 200.162 22.2884C201.824 22.2884 204.261 22.6231 205.702 22.9577L205.258 28.7585C203.486 28.3122 202.488 28.0892 200.051 28.0892C197.835 28.0892 196.394 29.3162 195.84 35.5632C195.84 36.2325 195.729 36.9017 195.729 37.4595C195.729 40.9176 196.727 42.0332 198.721 42.0332C201.27 42.0332 202.71 41.587 204.15 41.3638L203.596 47.1646Z" fill="#414042"/>
<path d="M216.228 22.7346L215.009 37.2364C215.009 38.1289 214.898 39.0213 214.898 39.4675C214.898 41.6986 215.674 42.2562 217.225 42.2562C219.995 42.2562 221.214 38.4635 221.435 36.1209L222.543 22.8461H229.08L226.975 47.6108H221.657L221.435 45.1567C219.884 46.9415 217.779 48.057 214.898 48.057C210.023 48.057 208.361 45.4913 208.361 40.4714C208.361 39.6906 208.361 38.9097 208.472 38.0173L209.801 22.8461H216.228V22.7346Z" fill="#414042"/>
<path d="M256.226 38.0173C255.229 38.0173 254.01 38.0173 252.792 37.9057V38.3519C252.792 41.4754 253.678 42.3678 256.559 42.3678C258.775 42.3678 261.434 41.9216 262.874 41.587L262.431 47.1646C260.769 47.6108 257.888 48.057 256.116 48.057C250.243 48.057 246.365 46.6068 246.365 38.1289C246.365 37.2365 246.365 36.344 246.476 35.2285C247.362 26.0812 250.908 22.3999 257.667 22.3999C264.647 22.3999 265.977 26.862 265.977 29.5393C265.866 34.8938 263.318 38.0173 256.226 38.0173ZM253.235 32.6628C254.121 32.7743 254.897 32.7743 255.562 32.7743C257.888 32.7743 259.44 32.105 259.44 30.2087C259.44 28.87 259.107 27.643 257.002 27.643C255.118 27.7544 253.9 28.9815 253.235 32.6628Z" fill="#414042"/>
<path d="M247.584 22.5115C245.811 22.1769 245.146 22.2884 244.26 22.2884C241.933 22.2884 240.049 23.6271 238.72 25.8581L238.387 22.7346H233.18L230.964 47.4992H237.501L238.498 35.7862C238.831 31.9935 240.603 29.3162 243.152 29.0931C243.817 26.639 244.703 24.1848 247.584 22.5115Z" fill="#414042"/>
<path d="M156.063 31.9935C154.069 31.5473 153.072 31.2126 153.072 30.2087C153.072 28.5353 154.069 27.866 156.617 27.866C158.612 27.866 160.717 28.2007 162.268 28.5353C162.933 26.639 163.93 24.9657 165.038 23.4039C162.6 22.7347 158.833 22.2884 157.171 22.2884C150.08 22.2884 146.424 24.631 146.424 30.9895C146.424 34.113 148.086 36.6787 152.739 37.5711C154.955 38.0173 155.62 38.4635 155.62 39.8022C155.62 41.9216 153.958 42.4794 151.41 42.4794C149.083 42.4794 146.867 41.9216 145.648 41.587L145.205 47.1646C146.534 47.4992 149.415 47.9454 151.853 47.9454C156.285 47.9454 159.83 46.9415 161.492 43.7065C162.157 42.4794 162.49 40.8062 162.49 38.7982C162.49 37.0133 162.046 35.5632 160.938 34.336C159.83 33.3321 158.279 32.4397 156.063 31.9935Z" fill="#414042"/>
<path d="M83.9324 60.3277C83.7108 60.6625 83.3784 60.9971 82.9352 61.2202C82.492 61.4433 82.0488 61.5548 81.4948 61.5548C80.9408 61.5548 80.3868 61.4433 79.9436 61.1086C79.5004 60.8855 79.168 60.4393 78.9464 59.8815C78.7248 59.3237 78.614 58.766 78.614 58.0967V57.6505C78.614 56.9812 78.7248 56.3118 78.9464 55.8656C79.168 55.3079 79.5004 54.9732 79.9436 54.6386C80.3868 54.4155 80.9408 54.1924 81.4948 54.1924C82.0488 54.1924 82.6028 54.3039 82.9352 54.527C83.3784 54.7501 83.7108 55.0848 83.9324 55.4194C84.154 55.7541 84.2648 56.2004 84.3756 56.758H82.8244C82.8244 56.3118 82.7136 55.9772 82.492 55.7541C82.2704 55.531 81.938 55.4194 81.4948 55.4194C81.0516 55.4194 80.7192 55.6426 80.3868 55.9772C80.1652 56.3118 80.0544 56.8696 80.0544 57.6505V58.0967C80.0544 58.6545 80.0544 58.9891 80.1652 59.3237C80.276 59.6585 80.3868 59.8815 80.6084 59.9931C80.83 60.1047 81.0516 60.2163 81.384 60.2163C81.8272 60.2163 82.1596 60.1047 82.3812 59.8815C82.6028 59.6585 82.7136 59.3237 82.7136 58.9891H84.2648C84.3756 59.5469 84.154 59.9931 83.9324 60.3277Z" fill="#939598"/>
<path d="M90.2481 59.9931H87.6997L87.2565 61.4433H85.5945L88.2537 54.4155H89.6941L92.3533 61.4433H90.6913L90.2481 59.9931ZM89.8049 58.7661L88.9185 56.2004L88.1429 58.7661H89.8049Z" fill="#939598"/>
<path d="M101.328 61.4433H99.7769V59.6585L99.8877 56.3119L98.0041 61.5548H97.0069L95.1233 56.3119L95.2341 59.6585V61.4433H93.6829V54.304H95.6773L97.4501 59.3239L99.2229 54.304H101.328V61.4433Z" fill="#939598"/>
<path d="M107.754 54.6386C108.198 54.8617 108.419 55.0848 108.641 55.531C108.862 55.8656 108.973 56.3119 108.973 56.7581C108.973 57.2043 108.862 57.6505 108.641 57.9852C108.419 58.3199 108.087 58.5429 107.754 58.7661C107.311 58.9891 106.868 58.9891 106.314 58.9891H105.095V61.4433H103.544V54.304H106.314C106.868 54.304 107.311 54.4155 107.754 54.6386ZM107.2 57.4274C107.422 57.2043 107.533 56.9812 107.533 56.6466C107.533 56.4234 107.533 56.2004 107.422 56.0888C107.311 55.8656 107.2 55.7542 107.09 55.6426C106.868 55.531 106.757 55.531 106.425 55.531H105.206V57.6505H106.425C106.757 57.7621 106.979 57.6505 107.2 57.4274Z" fill="#939598"/>
<path d="M116.397 58.9891C116.397 59.5469 116.286 59.9931 116.064 60.3278C115.843 60.6625 115.51 60.9971 115.067 61.2202C114.624 61.4433 114.181 61.5548 113.627 61.5548C113.073 61.5548 112.629 61.4433 112.186 61.2202C111.743 60.9971 111.411 60.774 111.189 60.3278C110.967 59.9931 110.857 59.5469 110.857 58.9891V54.304H112.408V58.9891C112.408 59.8815 112.851 60.3278 113.627 60.3278C114.07 60.3278 114.291 60.2163 114.513 59.9931C114.735 59.7701 114.845 59.4353 114.845 58.9891V54.304H116.397V58.9891Z" fill="#939598"/>
<path d="M119.61 57.9852C119.278 57.7621 118.945 57.539 118.834 57.3158C118.613 56.9812 118.502 56.6466 118.502 56.3118C118.502 55.8656 118.613 55.531 118.834 55.3079C119.056 55.0848 119.388 54.7502 119.721 54.6386C120.164 54.527 120.607 54.4155 121.05 54.4155C121.604 54.4155 122.048 54.527 122.38 54.6386C122.823 54.8617 123.045 55.0848 123.266 55.4194C123.488 55.7542 123.599 56.0888 123.599 56.535H122.048C122.048 56.2004 121.937 55.9772 121.715 55.8656C121.494 55.6426 121.272 55.6426 120.94 55.6426C120.718 55.6426 120.496 55.6426 120.386 55.7542C120.275 55.8656 120.053 55.8656 120.053 55.9772C119.942 56.0888 119.942 56.2004 119.942 56.4234C119.942 56.6466 120.053 56.8696 120.275 56.9812C120.496 57.0928 120.829 57.3158 121.272 57.4274C122.048 57.6505 122.602 57.9852 123.045 58.3198C123.377 58.6545 123.599 59.1007 123.599 59.7701C123.599 60.2163 123.488 60.5509 123.266 60.8855C123.045 61.2202 122.712 61.4433 122.38 61.5548C122.048 61.6664 121.494 61.778 121.05 61.778C120.607 61.778 120.053 61.6664 119.61 61.5548C119.167 61.3317 118.834 61.1087 118.502 60.774C118.28 60.4393 118.059 59.9931 118.059 59.4353H119.61C119.61 59.8815 119.721 60.1047 119.942 60.3277C120.164 60.5509 120.496 60.5509 120.94 60.5509C121.272 60.5509 121.494 60.4393 121.715 60.3277C121.937 60.2163 121.937 59.9931 121.937 59.7701C121.937 59.5469 121.937 59.4353 121.826 59.3237C121.715 59.2123 121.604 59.1007 121.383 58.9891C121.161 58.8776 120.94 58.7661 120.496 58.6545C120.275 58.3198 119.942 58.0967 119.61 57.9852Z" fill="#939598"/>
<path d="M136.452 61.4433H134.9V59.6585L135.011 56.3119L133.128 61.5548H132.13L130.247 56.3119L130.358 59.6585V61.4433H129.028V54.304H131.022L132.795 59.3239L134.568 54.304H136.562V61.4433H136.452Z" fill="#939598"/>
<path d="M142.657 59.9931H140.108L139.665 61.4433H138.003L140.662 54.4155H142.103L144.762 61.4433H143.1L142.657 59.9931ZM142.324 58.7661L141.438 56.2004L140.551 58.7661H142.324Z" fill="#939598"/>
<path d="M150.634 61.4433L147.864 56.8696V61.4433H146.313V54.304H147.864L150.634 58.8775V54.304H152.185V61.3318H150.634V61.4433Z" fill="#939598"/>
<path d="M158.279 59.9931H155.731L155.287 61.4433H153.625L156.285 54.4155H157.725L160.384 61.4433H158.722L158.279 59.9931ZM157.947 58.7661L157.06 56.2004L156.174 58.7661H157.947Z" fill="#939598"/>
<path d="M167.032 60.9971C166.811 61.1086 166.478 61.2202 166.146 61.3318C165.814 61.4433 165.37 61.4433 164.927 61.4433C164.262 61.4433 163.819 61.3318 163.265 60.9971C162.822 60.774 162.49 60.3278 162.157 59.7701C161.936 59.2123 161.825 58.6545 161.825 57.8736V57.6505C161.825 56.9812 161.936 56.3118 162.157 55.7542C162.379 55.1964 162.711 54.8617 163.154 54.527C163.597 54.1924 164.152 54.0808 164.706 54.0808C165.592 54.0808 166.257 54.304 166.7 54.7502C167.143 55.1964 167.476 55.7542 167.476 56.535H166.035C166.035 56.2004 165.814 55.8656 165.703 55.6426C165.481 55.4194 165.149 55.308 164.816 55.308C164.373 55.308 163.93 55.531 163.708 55.8656C163.487 56.2004 163.376 56.7581 163.376 57.539V57.9852C163.376 58.7661 163.487 59.2123 163.819 59.6585C164.041 59.9931 164.484 60.2163 165.038 60.2163C165.592 60.2163 165.924 60.1047 166.146 59.8815V58.7661H164.816V57.6505H167.586V60.5509C167.476 60.6625 167.254 60.8855 167.032 60.9971Z" fill="#939598"/>
<path d="M174.456 60.2163V61.4433H169.692V54.304H174.456V55.531H171.243V57.0928H174.013V58.3199H171.243V60.1047H174.456V60.2163Z" fill="#939598"/>
<path d="M183.763 61.4433H182.212V59.6585L182.323 56.3119L180.439 61.5548H179.442L177.558 56.3119L177.669 59.6585V61.4433H176.118V54.304H178.112L179.885 59.3239L181.658 54.304H183.652V61.4433H183.763Z" fill="#939598"/>
<path d="M190.633 60.2163V61.4433H185.868V54.304H190.633V55.531H187.42V57.0928H190.19V58.3199H187.42V60.1047H190.633V60.2163Z" fill="#939598"/>
<path d="M196.727 61.4433L193.957 56.8696V61.4433H192.406V54.304H193.957L196.727 58.8775V54.304H198.278V61.3318H196.727V61.4433Z" fill="#939598"/>
<path d="M205.812 55.531H203.707V61.3318H202.156V55.531H200.051V54.304H205.812V55.531Z" fill="#939598"/>
<path d="M211.906 57.9852C211.574 57.7621 211.242 57.539 211.131 57.3158C210.909 56.9812 210.798 56.6466 210.798 56.3118C210.798 55.8656 210.909 55.531 211.131 55.3079C211.352 55.0848 211.685 54.7502 212.017 54.6386C212.46 54.527 212.904 54.4155 213.347 54.4155C213.901 54.4155 214.344 54.527 214.676 54.6386C215.12 54.8617 215.341 55.0848 215.563 55.4194C215.784 55.7542 215.895 56.0888 215.895 56.535H214.344C214.344 56.2004 214.233 55.9772 214.012 55.8656C213.79 55.6426 213.568 55.6426 213.236 55.6426C213.014 55.6426 212.793 55.6426 212.682 55.7542C212.571 55.8656 212.35 55.8656 212.35 55.9772C212.239 56.0888 212.239 56.2004 212.239 56.4234C212.239 56.6466 212.35 56.8696 212.571 56.9812C212.793 57.0928 213.125 57.3158 213.568 57.4274C214.344 57.6505 214.898 57.9852 215.341 58.3198C215.674 58.6545 215.895 59.1007 215.895 59.7701C215.895 60.2163 215.784 60.5509 215.563 60.8855C215.341 61.2202 215.009 61.4433 214.676 61.5548C214.344 61.6664 213.79 61.778 213.347 61.778C212.904 61.778 212.35 61.6664 211.906 61.5548C211.463 61.3317 211.131 61.1087 210.798 60.774C210.577 60.4393 210.355 59.9931 210.355 59.4353H211.906C211.906 59.8815 212.017 60.1047 212.239 60.3277C212.46 60.5509 212.793 60.5509 213.236 60.5509C213.568 60.5509 213.79 60.4393 214.012 60.3277C214.233 60.2163 214.233 59.9931 214.233 59.7701C214.233 59.5469 214.233 59.4353 214.122 59.3237C214.012 59.2123 213.901 59.1007 213.679 58.9891C213.458 58.8776 213.236 58.7661 212.793 58.6545C212.682 58.3198 212.239 58.0967 211.906 57.9852Z" fill="#939598"/>
<path d="M223.43 59.8815C223.208 60.4393 222.876 60.774 222.322 61.1086C221.878 61.4433 221.324 61.5548 220.77 61.5548C220.216 61.5548 219.662 61.4433 219.219 61.1086C218.776 60.774 218.444 60.4393 218.111 59.8815C217.89 59.3239 217.779 58.7661 217.779 57.9852V57.6505C217.779 56.9812 217.89 56.3118 218.111 55.7542C218.333 55.1964 218.665 54.8617 219.219 54.527C219.662 54.1924 220.216 54.0808 220.77 54.0808C221.324 54.0808 221.878 54.1924 222.322 54.527C222.765 54.8617 223.097 55.1964 223.43 55.7542C223.651 56.3118 223.762 56.8696 223.762 57.6505V57.9852C223.762 58.7661 223.651 59.3239 223.43 59.8815ZM221.878 56.0888C221.657 55.7542 221.214 55.531 220.77 55.531C220.327 55.531 219.884 55.7542 219.662 56.0888C219.441 56.4234 219.33 56.9812 219.33 57.7621V58.0967C219.33 58.7661 219.441 59.3239 219.662 59.7701C219.884 60.1047 220.327 60.3278 220.77 60.3278C221.214 60.3278 221.657 60.1047 221.878 59.7701C222.1 59.4353 222.211 58.8775 222.211 58.0967V57.7621C222.211 56.9812 222.1 56.4234 221.878 56.0888Z" fill="#939598"/>
<path d="M230.299 60.2163V61.4433H225.756V54.304H227.308V60.1047H230.299V60.2163Z" fill="#939598"/>
<path d="M237.39 58.9891C237.39 59.5469 237.28 59.9931 237.058 60.3278C236.836 60.6625 236.504 60.9971 236.061 61.2202C235.618 61.4433 235.174 61.5548 234.62 61.5548C234.066 61.5548 233.623 61.4433 233.18 61.2202C232.737 60.9971 232.404 60.774 232.183 60.3278C231.961 59.9931 231.85 59.5469 231.85 58.9891V54.304H233.402V58.9891C233.402 59.8815 233.845 60.3278 234.62 60.3278C235.064 60.3278 235.285 60.2163 235.507 59.9931C235.728 59.7701 235.839 59.4353 235.839 58.9891V54.304H237.39V58.9891Z" fill="#939598"/>
<path d="M244.814 55.531H242.709V61.3318H241.158V55.531H239.052V54.304H244.814V55.531Z" fill="#939598"/>
<path d="M246.698 61.4433V54.304H248.249V61.3318H246.698V61.4433Z" fill="#939598"/>
<path d="M256.005 59.8815C255.783 60.4393 255.451 60.774 254.897 61.1086C254.343 61.4433 253.9 61.5548 253.346 61.5548C252.792 61.5548 252.238 61.4433 251.794 61.1086C251.351 60.774 251.019 60.4393 250.686 59.8815C250.465 59.3239 250.354 58.7661 250.354 57.9852V57.6505C250.354 56.9812 250.465 56.3118 250.686 55.7542C250.908 55.1964 251.24 54.8617 251.794 54.527C252.238 54.1924 252.792 54.0808 253.346 54.0808C253.9 54.0808 254.454 54.1924 254.897 54.527C255.34 54.8617 255.672 55.1964 256.005 55.7542C256.226 56.3118 256.337 56.8696 256.337 57.6505V57.9852C256.337 58.7661 256.226 59.3239 256.005 59.8815ZM254.454 56.0888C254.232 55.7542 253.789 55.531 253.346 55.531C252.902 55.531 252.459 55.7542 252.238 56.0888C252.016 56.4234 251.905 56.9812 251.905 57.7621V58.0967C251.905 58.7661 252.016 59.3239 252.238 59.7701C252.459 60.1047 252.902 60.3278 253.346 60.3278C253.789 60.3278 254.232 60.1047 254.454 59.7701C254.675 59.4353 254.786 58.8775 254.786 58.0967V57.7621C254.786 56.9812 254.675 56.4234 254.454 56.0888Z" fill="#939598"/>
<path d="M262.653 61.4433L259.883 56.8696V61.4433H258.332V54.304H259.883L262.653 58.8775V54.304H264.204V61.3318H262.653V61.4433Z" fill="#939598"/>
<path d="M271.517 19.388H269.966V23.627H268.858V19.388H267.306V18.4956H271.517V19.388Z" fill="#BCBEC0"/>
<path d="M277.5 23.627H276.392V22.2884L276.503 19.8342L275.173 23.627H274.398L273.068 19.8342L273.179 22.2884V23.627H272.071V18.4956H273.511L274.73 22.1768L275.949 18.4956H277.389V23.627H277.5Z" fill="#BCBEC0"/>
</g>
</g>
<defs>
<clipPath id="clip0_241_1879">
<rect width="277" height="74" fill="white" transform="translate(0.5 0.180634)"/>
</clipPath>
</defs>
</svg>
