<svg width="32" height="33" viewBox="0 0 32 33" fill="none" xmlns="http://www.w3.org/2000/svg">
<circle cx="16" cy="16.918" r="16" fill="#CD832C"/>
<path d="M10 13.9179L16 17.6679L22 13.9179L16 10.1679L10 13.9179ZM23.5 13.9179V21.4179C23.5 21.8158 23.342 22.1973 23.0607 22.4786C22.7794 22.7599 22.3978 22.9179 22 22.9179H10C9.60218 22.9179 9.22064 22.7599 8.93934 22.4786C8.65804 22.1973 8.5 21.8158 8.5 21.4179V13.9179C8.5 13.3704 8.7925 12.8979 9.2275 12.6354L16 8.39795L22.7725 12.6354C23.2075 12.8979 23.5 13.3704 23.5 13.9179Z" fill="white"/>
</svg>
