<svg width="24" height="25" viewBox="0 0 24 25" fill="none" xmlns="http://www.w3.org/2000/svg">
<path d="M13.028 2.9192C13.7578 2.9164 14.4875 2.92373 15.217 2.9412L15.411 2.9482C15.635 2.9562 15.856 2.9662 16.123 2.9782C17.187 3.0282 17.913 3.1962 18.55 3.4432C19.21 3.6972 19.766 4.0412 20.322 4.5972C20.8304 5.09681 21.2239 5.70115 21.475 6.3682C21.722 7.0052 21.89 7.7322 21.94 8.7962C21.952 9.0622 21.962 9.2842 21.97 9.5082L21.976 9.7022C21.9938 10.4314 22.0015 11.1608 21.999 11.8902L22 12.6362V13.9462C22.0025 14.6759 21.9948 15.4057 21.977 16.1352L21.971 16.3292C21.963 16.5532 21.953 16.7742 21.941 17.0412C21.891 18.1052 21.721 18.8312 21.475 19.4682C21.2247 20.136 20.8311 20.7408 20.322 21.2402C19.822 21.7485 19.2173 22.142 18.55 22.3932C17.913 22.6402 17.187 22.8082 16.123 22.8582C15.856 22.8702 15.635 22.8802 15.411 22.8882L15.217 22.8942C14.4875 22.912 13.7578 22.9196 13.028 22.9172L12.282 22.9182H10.973C10.2433 22.9207 9.51355 22.913 8.78403 22.8952L8.59003 22.8892C8.35264 22.8806 8.1153 22.8706 7.87803 22.8592C6.81403 22.8092 6.08803 22.6392 5.45003 22.3932C4.78271 22.1425 4.17827 21.749 3.67903 21.2402C3.17007 20.7405 2.77625 20.1358 2.52503 19.4682C2.27803 18.8312 2.11003 18.1052 2.06003 17.0412C2.04889 16.8039 2.03889 16.5666 2.03003 16.3292L2.02503 16.1352C2.00659 15.4057 1.99826 14.6759 2.00003 13.9462V11.8902C1.99724 11.1608 2.00457 10.4314 2.02203 9.7022L2.02903 9.5082C2.03703 9.2842 2.04703 9.0622 2.05903 8.7962C2.10903 7.7312 2.27703 7.0062 2.52403 6.3682C2.7754 5.70082 3.16999 5.09664 3.68003 4.5982C4.17892 4.08895 4.78299 3.69477 5.45003 3.4432C6.08803 3.1962 6.81303 3.0282 7.87803 2.9782L8.59003 2.9482L8.78403 2.9432C9.51321 2.92477 10.2426 2.91644 10.972 2.9182L13.028 2.9192ZM12 7.9192C11.3375 7.90983 10.6798 8.03222 10.065 8.27927C9.45022 8.52631 8.89067 8.89308 8.41887 9.35825C7.94707 9.82343 7.57243 10.3777 7.31671 10.989C7.061 11.6002 6.92932 12.2561 6.92932 12.9187C6.92932 13.5813 7.061 14.2372 7.31671 14.8484C7.57243 15.4597 7.94707 16.014 8.41887 16.4791C8.89067 16.9443 9.45022 17.3111 10.065 17.5581C10.6798 17.8052 11.3375 17.9276 12 17.9182C13.3261 17.9182 14.5979 17.3914 15.5356 16.4537C16.4732 15.5161 17 14.2443 17 12.9182C17 11.5921 16.4732 10.3203 15.5356 9.38267C14.5979 8.44498 13.3261 7.9192 12 7.9192ZM12 9.9192C12.3985 9.91186 12.7945 9.984 13.1648 10.1314C13.5351 10.2788 13.8724 10.4985 14.1568 10.7777C14.4412 11.0569 14.6672 11.39 14.8215 11.7575C14.9757 12.125 15.0552 12.5196 15.0553 12.9182C15.0554 13.3168 14.976 13.7114 14.8219 14.0789C14.6677 14.4465 14.4419 14.7796 14.1575 15.0589C13.8732 15.3382 13.536 15.5581 13.1658 15.7056C12.7955 15.8531 12.3995 15.9254 12.001 15.9182C11.2054 15.9182 10.4423 15.6021 9.87971 15.0395C9.3171 14.4769 9.00103 13.7138 9.00103 12.9182C9.00103 12.1226 9.3171 11.3595 9.87971 10.7969C10.4423 10.2343 11.2054 9.9182 12.001 9.9182L12 9.9192ZM17.25 6.4192C16.9274 6.43211 16.6223 6.56935 16.3986 6.80217C16.1749 7.03499 16.05 7.34533 16.05 7.6682C16.05 7.99106 16.1749 8.30141 16.3986 8.53423C16.6223 8.76705 16.9274 8.90429 17.25 8.9172C17.5815 8.9172 17.8995 8.7855 18.1339 8.55108C18.3683 8.31666 18.5 7.99872 18.5 7.6672C18.5 7.33568 18.3683 7.01774 18.1339 6.78332C17.8995 6.5489 17.5815 6.4172 17.25 6.4172V6.4192Z" fill="#024782"/>
</svg>
