<svg width="24" height="25" viewBox="0 0 24 25" fill="none" xmlns="http://www.w3.org/2000/svg">
<path d="M19 7.48413H16V6.48413C16 5.68848 15.6839 4.92542 15.1213 4.36281C14.5587 3.8002 13.7956 3.48413 13 3.48413H11C10.2044 3.48413 9.44129 3.8002 8.87868 4.36281C8.31607 4.92542 8 5.68848 8 6.48413V7.48413H5C4.20435 7.48413 3.44129 7.8002 2.87868 8.36281C2.31607 8.92542 2 9.68848 2 10.4841V19.4841C2 20.2798 2.31607 21.0428 2.87868 21.6055C3.44129 22.1681 4.20435 22.4841 5 22.4841H19C19.7956 22.4841 20.5587 22.1681 21.1213 21.6055C21.6839 21.0428 22 20.2798 22 19.4841V10.4841C22 9.68848 21.6839 8.92542 21.1213 8.36281C20.5587 7.8002 19.7956 7.48413 19 7.48413ZM10 6.48413C10 6.21891 10.1054 5.96456 10.2929 5.77702C10.4804 5.58949 10.7348 5.48413 11 5.48413H13C13.2652 5.48413 13.5196 5.58949 13.7071 5.77702C13.8946 5.96456 14 6.21891 14 6.48413V7.48413H10V6.48413ZM20 19.4841C20 19.7493 19.8946 20.0037 19.7071 20.1912C19.5196 20.3788 19.2652 20.4841 19 20.4841H5C4.73478 20.4841 4.48043 20.3788 4.29289 20.1912C4.10536 20.0037 4 19.7493 4 19.4841V14.4341H7V15.4841C7 15.7493 7.10536 16.0037 7.29289 16.1912C7.48043 16.3788 7.73478 16.4841 8 16.4841C8.26522 16.4841 8.51957 16.3788 8.70711 16.1912C8.89464 16.0037 9 15.7493 9 15.4841V14.4341H15V15.4841C15 15.7493 15.1054 16.0037 15.2929 16.1912C15.4804 16.3788 15.7348 16.4841 16 16.4841C16.2652 16.4841 16.5196 16.3788 16.7071 16.1912C16.8946 16.0037 17 15.7493 17 15.4841V14.4341H20V19.4841ZM20 12.4841H4V10.4841C4 10.2189 4.10536 9.96456 4.29289 9.77702C4.48043 9.58949 4.73478 9.48413 5 9.48413H19C19.2652 9.48413 19.5196 9.58949 19.7071 9.77702C19.8946 9.96456 20 10.2189 20 10.4841V12.4841Z" fill="white"/>
</svg>
