<svg width="48" height="49" viewBox="0 0 48 49" fill="none" xmlns="http://www.w3.org/2000/svg">
<circle cx="24" cy="24.918" r="24" transform="rotate(180 24 24.918)" fill="#E9F5FE"/>
<path d="M23.67 32.463C23.4591 32.6737 23.1731 32.792 22.875 32.792C22.5769 32.792 22.2909 32.6737 22.08 32.463L15.705 26.088C15.4943 25.877 15.376 25.5911 15.376 25.293C15.376 24.9949 15.4943 24.7089 15.705 24.498L22.08 18.123C22.2934 17.9244 22.5755 17.8162 22.8669 17.8212C23.1584 17.8263 23.4366 17.9441 23.643 18.15C23.8489 18.3564 23.9667 18.6346 23.9717 18.926C23.9768 19.2175 23.8686 19.4996 23.67 19.713L19.215 24.168L30.375 24.168C30.6734 24.168 30.9595 24.2865 31.1705 24.4975C31.3815 24.7085 31.5 24.9946 31.5 25.293C31.5 25.5914 31.3815 25.8775 31.1705 26.0885C30.9595 26.2995 30.6734 26.418 30.375 26.418L19.215 26.418L23.67 30.873C23.8807 31.0839 23.999 31.3699 23.999 31.668C23.999 31.9661 23.8807 32.252 23.67 32.463Z" fill="#024782"/>
</svg>
