<svg width="24" height="25" viewBox="0 0 24 25" fill="none" xmlns="http://www.w3.org/2000/svg">
<path d="M9 7.11507V20.9761M15 3.47607V17.4761M3 9.18607C3 7.71207 3 6.97607 3.393 6.54607C3.53209 6.39311 3.70129 6.27054 3.89 6.18607C4.422 5.95007 5.121 6.18307 6.519 6.64907C7.586 7.00507 8.119 7.18307 8.659 7.16407C8.8571 7.15756 9.05406 7.13143 9.247 7.08607C9.772 6.96107 10.24 6.64907 11.176 6.02607L12.558 5.10407C13.758 4.30407 14.357 3.90407 15.045 3.81307C15.733 3.72007 16.417 3.94807 17.784 4.40407L18.949 4.79207C19.939 5.12207 20.434 5.28707 20.717 5.68007C21 6.07307 21 6.59507 21 7.63807V15.7671C21 17.2401 21 17.9771 20.607 18.4071C20.4677 18.5593 20.2985 18.6812 20.11 18.7651C19.578 19.0021 18.879 18.7691 17.481 18.3031C16.414 17.9471 15.881 17.7691 15.341 17.7881C15.1429 17.7946 14.9459 17.8207 14.753 17.8661C14.228 17.9911 13.76 18.3031 12.824 18.9261L11.442 19.8481C10.242 20.6481 9.643 21.0481 8.955 21.1391C8.267 21.2321 7.583 21.0041 6.216 20.5481L5.051 20.1601C4.061 19.8301 3.566 19.6651 3.283 19.2721C3 18.8791 3 18.3561 3 17.3141V9.18607Z" stroke="white" stroke-width="2"/>
</svg>
