<svg width="48" height="49" viewBox="0 0 48 49" fill="none" xmlns="http://www.w3.org/2000/svg">
<circle cx="24" cy="24.918" r="24" fill="#E9F5FE"/>
<path d="M24.33 17.373C24.5409 17.1623 24.8269 17.0439 25.125 17.0439C25.4231 17.0439 25.7091 17.1623 25.92 17.373L32.295 23.748C32.5057 23.9589 32.624 24.2448 32.624 24.543C32.624 24.8411 32.5057 25.127 32.295 25.338L25.92 31.713C25.7066 31.9116 25.4245 32.0197 25.1331 32.0147C24.8416 32.0097 24.5634 31.8918 24.357 31.686C24.1511 31.4796 24.0333 31.2014 24.0283 30.9099C24.0232 30.6184 24.1314 30.3363 24.33 30.123L28.785 25.668H17.625C17.3266 25.668 17.0405 25.5494 16.8295 25.3384C16.6185 25.1275 16.5 24.8413 16.5 24.543C16.5 24.2446 16.6185 23.9584 16.8295 23.7475C17.0405 23.5365 17.3266 23.418 17.625 23.418H28.785L24.33 18.963C24.1193 18.752 24.001 18.4661 24.001 18.168C24.001 17.8698 24.1193 17.5839 24.33 17.373Z" fill="#024782"/>
</svg>
