<svg width="25" height="25" viewBox="0 0 25 25" fill="none" xmlns="http://www.w3.org/2000/svg">
<path d="M16.4778 15.3132H15.6878L15.4078 15.0432C16.0327 14.3172 16.4895 13.462 16.7453 12.5389C17.0012 11.6157 17.0498 10.6474 16.8878 9.70324C16.4178 6.92324 14.0978 4.70324 11.2978 4.36324C10.3134 4.23871 9.31355 4.34101 8.37478 4.66233C7.43602 4.98365 6.5832 5.51546 5.88159 6.21707C5.17998 6.91869 4.64816 7.7715 4.32685 8.71027C4.00553 9.64903 3.90322 10.6489 4.02776 11.6332C4.36776 14.4332 6.58776 16.7532 9.36776 17.2232C10.3119 17.3853 11.2802 17.3366 12.2034 17.0808C13.1265 16.8249 13.9817 16.3682 14.7078 15.7432L14.9778 16.0232V16.8132L19.2278 21.0632C19.6378 21.4732 20.3078 21.4732 20.7178 21.0632C21.1278 20.6532 21.1278 19.9832 20.7178 19.5732L16.4778 15.3132ZM10.4778 15.3132C7.98776 15.3132 5.97776 13.3032 5.97776 10.8132C5.97776 8.32324 7.98776 6.31324 10.4778 6.31324C12.9678 6.31324 14.9778 8.32324 14.9778 10.8132C14.9778 13.3032 12.9678 15.3132 10.4778 15.3132Z" fill="white"/>
</svg>
